<mxfile host="app.diagrams.net" modified="2024-01-20T12:47:19.330Z" agent="Mozilla/5.0 (X11; Linux x86_64) AppleWebKit/537.36 (KHTML, like Gecko) Chrome/120.0.0.0 Safari/537.36" etag="3OnKXB0t6jGAoRwaDJwB" version="22.1.21" type="github">
  <diagram name="Page-1" id="QYc-50m_XBAP9rMNQPyU">
    <mxGraphModel dx="880" dy="470" grid="1" gridSize="10" guides="1" tooltips="1" connect="1" arrows="1" fold="1" page="1" pageScale="1" pageWidth="827" pageHeight="1169" math="0" shadow="0">
      <root>
        <mxCell id="0" />
        <mxCell id="1" parent="0" />
        <mxCell id="hGv1N_XjfB2GI_7mYwIp-1" value="Clients" style="ellipse;shape=cloud;whiteSpace=wrap;html=1;" vertex="1" parent="1">
          <mxGeometry x="400" y="30" width="120" height="80" as="geometry" />
        </mxCell>
        <mxCell id="hGv1N_XjfB2GI_7mYwIp-4" value="Aws Ec2 Instance1" style="verticalLabelPosition=bottom;verticalAlign=top;html=1;shape=mxgraph.basic.rect;fillColor2=none;strokeWidth=1;size=20;indent=5;" vertex="1" parent="1">
          <mxGeometry x="285" y="195" width="420" height="130" as="geometry" />
        </mxCell>
        <mxCell id="hGv1N_XjfB2GI_7mYwIp-2" value="HAProxy" style="rounded=0;whiteSpace=wrap;html=1;" vertex="1" parent="1">
          <mxGeometry x="340" y="230" width="310" height="60" as="geometry" />
        </mxCell>
        <mxCell id="hGv1N_XjfB2GI_7mYwIp-7" value="" style="whiteSpace=wrap;html=1;aspect=fixed;" vertex="1" parent="1">
          <mxGeometry x="310" y="475" width="140" height="140" as="geometry" />
        </mxCell>
        <mxCell id="hGv1N_XjfB2GI_7mYwIp-5" value="WebServer1" style="whiteSpace=wrap;html=1;aspect=fixed;" vertex="1" parent="1">
          <mxGeometry x="340" y="500" width="80" height="80" as="geometry" />
        </mxCell>
        <mxCell id="hGv1N_XjfB2GI_7mYwIp-8" value="" style="whiteSpace=wrap;html=1;aspect=fixed;" vertex="1" parent="1">
          <mxGeometry x="565" y="475" width="140" height="140" as="geometry" />
        </mxCell>
        <mxCell id="hGv1N_XjfB2GI_7mYwIp-6" value="WebServer2" style="whiteSpace=wrap;html=1;aspect=fixed;" vertex="1" parent="1">
          <mxGeometry x="590" y="505" width="80" height="80" as="geometry" />
        </mxCell>
        <mxCell id="hGv1N_XjfB2GI_7mYwIp-9" value="&lt;span style=&quot;color: rgb(0, 0, 0); font-family: Helvetica; font-size: 12px; font-style: normal; font-variant-ligatures: normal; font-variant-caps: normal; font-weight: 400; letter-spacing: normal; orphans: 2; text-align: center; text-indent: 0px; text-transform: none; widows: 2; word-spacing: 0px; -webkit-text-stroke-width: 0px; background-color: rgb(251, 251, 251); text-decoration-thickness: initial; text-decoration-style: initial; text-decoration-color: initial; float: none; display: inline !important;&quot;&gt;AWS Instance2&lt;/span&gt;" style="text;whiteSpace=wrap;html=1;" vertex="1" parent="1">
          <mxGeometry x="320" y="615" width="120" height="40" as="geometry" />
        </mxCell>
        <mxCell id="hGv1N_XjfB2GI_7mYwIp-10" value="&lt;span style=&quot;color: rgb(0, 0, 0); font-family: Helvetica; font-size: 12px; font-style: normal; font-variant-ligatures: normal; font-variant-caps: normal; font-weight: 400; letter-spacing: normal; orphans: 2; text-align: center; text-indent: 0px; text-transform: none; widows: 2; word-spacing: 0px; -webkit-text-stroke-width: 0px; background-color: rgb(251, 251, 251); text-decoration-thickness: initial; text-decoration-style: initial; text-decoration-color: initial; float: none; display: inline !important;&quot;&gt;AWS Instance3&lt;/span&gt;" style="text;whiteSpace=wrap;html=1;" vertex="1" parent="1">
          <mxGeometry x="570" y="610" width="120" height="40" as="geometry" />
        </mxCell>
        <mxCell id="hGv1N_XjfB2GI_7mYwIp-11" value="" style="endArrow=classic;html=1;rounded=0;entryX=0.612;entryY=-0.008;entryDx=0;entryDy=0;entryPerimeter=0;" edge="1" parent="1" target="hGv1N_XjfB2GI_7mYwIp-4">
          <mxGeometry width="50" height="50" relative="1" as="geometry">
            <mxPoint x="490" y="100" as="sourcePoint" />
            <mxPoint x="520" y="160" as="targetPoint" />
          </mxGeometry>
        </mxCell>
        <mxCell id="hGv1N_XjfB2GI_7mYwIp-14" value="" style="endArrow=classic;html=1;rounded=0;entryX=0.207;entryY=1.038;entryDx=0;entryDy=0;entryPerimeter=0;" edge="1" parent="1" target="hGv1N_XjfB2GI_7mYwIp-4">
          <mxGeometry width="50" height="50" relative="1" as="geometry">
            <mxPoint x="370" y="470" as="sourcePoint" />
            <mxPoint x="400" y="360" as="targetPoint" />
          </mxGeometry>
        </mxCell>
        <mxCell id="hGv1N_XjfB2GI_7mYwIp-15" value="" style="endArrow=classic;html=1;rounded=0;entryX=0.774;entryY=1;entryDx=0;entryDy=0;entryPerimeter=0;" edge="1" parent="1" target="hGv1N_XjfB2GI_7mYwIp-4">
          <mxGeometry width="50" height="50" relative="1" as="geometry">
            <mxPoint x="610" y="470" as="sourcePoint" />
            <mxPoint x="610" y="360" as="targetPoint" />
          </mxGeometry>
        </mxCell>
      </root>
    </mxGraphModel>
  </diagram>
</mxfile>
